<?xml version="1.0" standalone="no"?>
<!DOCTYPE svg PUBLIC "-//W3C//DTD SVG 1.1//EN" "http://www.w3.org/Graphics/SVG/1.1/DTD/svg11.dtd" >
<svg xmlns="http://www.w3.org/2000/svg">
<metadata>Generated by IcoMoon</metadata>
<defs>
<font id="icon-base" horiz-adv-x="1024">
<font-face units-per-em="1024" ascent="960" descent="-64" />
<missing-glyph horiz-adv-x="1024" />
<glyph unicode="&#x20;" horiz-adv-x="512" d="" />
<glyph unicode="&#xe900;" glyph-name="Bas-001" d="M895.979 729.984c-27.027-13.127-58.399-22.71-91.414-27.093l-1.578-0.171c33.493 21.312 59.051 55.125 71.189 95.467-29.459-19.008-63.85-33.507-100.671-41.484l-2.049-0.372c-29.483 33.451-71.637 54.507-118.187 54.507-104.469 0-181.312-103.851-157.675-211.755-134.613 7.168-253.909 75.755-333.781 180.117-42.432-77.461-21.888-178.795 50.197-230.272-27.213 1.018-52.383 8.91-74.084 21.979l0.697-0.389c-1.728-79.787 51.904-154.709 129.899-171.307-12.803-3.79-27.512-5.971-42.731-5.971-10.742 0-21.23 1.087-31.361 3.156l1.004-0.171c20.693-68.544 80.32-118.293 151.189-119.637-68.16-56.619-153.856-81.984-239.701-71.296 71.616-48.875 156.693-77.461 248.085-77.461 300.608 0 470.4 270.443 460.16 512.747 31.744 24.277 59.008 54.784 80.811 89.408z" />
<glyph unicode="&#xe901;" glyph-name="Bas-002" d="M569.323 64.363v340.416h113.173l16.917 132.587h-130.091v84.629c0 38.379 10.539 64.619 65.131 64.619l69.547 0.021v118.613c-12.032 1.621-53.355 5.291-101.376 5.291-100.331 0-169.003-61.909-169.003-175.339v-97.835h-113.429v-132.587h113.429v-340.416h135.701z" />
<glyph unicode="&#xe902;" glyph-name="Bas-003" d="M839.723 831.893h-654.592c-31.275 0-56.661-24.811-56.661-55.445v-657.472c0-30.571 25.387-55.424 56.661-55.424h654.592c31.275 0 56.811 24.853 56.811 55.424v657.472c0 30.635-25.536 55.445-56.811 55.445zM356.288 177.173h-114.005v366.656h114.005v-366.656zM299.307 593.899c-0.006 0-0.014 0-0.021 0-36.477 0-66.048 29.571-66.048 66.048 0 0.030 0 0.060 0 0.090v-0.005c0 36.483 29.575 66.059 66.059 66.059s66.059-29.575 66.059-66.059v0c0-36.544-29.589-66.133-66.048-66.133zM782.976 177.173h-113.92v178.347c0 42.475-0.725 97.195-59.157 97.195-59.285 0-68.331-46.4-68.331-94.229v-181.312h-113.813v366.656h109.184v-50.091h1.6c15.211 28.8 52.352 59.2 107.755 59.2 115.371 0 136.683-75.883 136.683-174.677v-201.088z" />
<glyph unicode="&#xe903;" glyph-name="Bas-004" d="M520.235 515.691v-146.731h213.589c-27.861-88.939-103.808-152.576-213.589-152.576-130.688 0-236.715 103.744-236.715 231.637 0 127.915 105.877 231.723 236.715 231.723 58.795 0 112.448-21.163 153.813-55.936l110.357 108.139c-69.675 62.208-162.453 100.075-264.171 100.075-216.789 0-392.491-171.925-392.491-384 0-212.011 175.701-383.936 392.491-383.936 329.365 0 402.091 301.44 369.792 451.051l-369.792 0.555z" />
<glyph unicode="&#xe904;" glyph-name="Bas-005" d="M893.696 289.685c-1.877-40.875-8.363-68.8-17.856-93.227-10.184-26.614-25.248-49.302-44.261-67.984l-0.027-0.027c-18.708-19.040-41.396-34.104-66.722-43.852l-1.288-0.436c-24.427-9.493-52.352-15.979-93.227-17.856-40.96-1.856-54.016-2.304-158.315-2.304s-117.355 0.448-158.315 2.304c-40.875 1.877-68.8 8.363-93.227 17.856-26.614 10.184-49.302 25.248-67.984 44.261l-0.027 0.027c-19.040 18.708-34.104 41.396-43.852 66.722l-0.436 1.288c-9.493 24.427-15.979 52.352-17.856 93.227-1.856 40.96-2.304 54.037-2.304 158.315 0 104.299 0.448 117.355 2.304 158.315 1.877 40.875 8.363 68.8 17.856 93.227 10.184 26.614 25.248 49.302 44.261 67.984l0.027 0.027c18.708 19.040 41.396 34.104 66.722 43.852l1.288 0.436c24.427 9.493 52.352 15.979 93.227 17.856 40.96 1.856 54.016 2.304 158.315 2.304s117.355-0.448 158.315-2.304c40.875-1.877 68.8-8.363 93.227-17.856 26.614-10.184 49.302-25.248 67.984-44.261l0.027-0.027c19.040-18.708 34.104-41.396 43.852-66.722l0.436-1.288c9.493-24.427 15.979-52.352 17.856-93.227 1.856-40.96 2.304-54.016 2.304-158.315 0-104.277-0.448-117.355-2.304-158.315zM824.555 603.179c-1.685 37.419-7.957 57.771-13.205 71.296-6.491 17.318-16.276 32.069-28.687 44.133l-0.028 0.027c-12.096 12.431-26.845 22.215-43.34 28.443l-0.82 0.272c-13.525 5.269-33.877 11.52-71.296 13.227-40.512 1.835-52.651 2.24-155.179 2.24s-114.667-0.405-155.179-2.24c-37.419-1.707-57.771-7.957-71.296-13.227-17.92-6.955-30.72-15.296-44.16-28.736-12.443-12.081-22.229-26.826-28.445-43.322l-0.27-0.817c-5.269-13.525-11.52-33.877-13.227-71.296-1.835-40.491-2.24-52.651-2.24-155.179s0.405-114.667 2.24-155.157c1.707-37.461 7.957-57.792 13.227-71.317 6.955-17.92 15.275-30.72 28.715-44.16 12.1-12.424 26.848-22.207 43.339-28.442l0.821-0.273c13.525-5.248 33.877-11.52 71.296-13.227 40.512-1.835 52.629-2.24 155.179-2.24s114.667 0.405 155.179 2.24c37.419 1.707 57.771 7.979 71.296 13.227 17.312 6.508 32.060 16.29 44.135 28.689l0.025 0.026c13.44 13.44 21.76 26.24 28.715 44.16 5.248 13.525 11.52 33.856 13.205 71.317 1.856 40.491 2.261 52.629 2.261 155.157s-0.405 114.688-2.261 155.179zM716.971 606.891c-25.445 0.006-46.069 20.634-46.069 46.080 0 25.449 20.631 46.080 46.080 46.080 0.004 0 0.008 0 0.011 0h-0.001c25.445-0.006 46.069-20.634 46.069-46.080 0-25.449-20.631-46.080-46.080-46.080-0.004 0-0.008 0-0.011 0h0.001zM512 250.816c-108.902 0-197.184 88.282-197.184 197.184v0c0 108.902 88.282 197.184 197.184 197.184v0c108.902 0 197.184-88.282 197.184-197.184v0c0-108.902-88.282-197.184-197.184-197.184v0zM512 576c-70.692 0-128-57.308-128-128s57.308-128 128-128v0c70.692 0 128 57.308 128 128s-57.308 128-128 128v0z" />
<glyph unicode="&#xe905;" glyph-name="Bas-006" d="M930.112 278.528s-8.32-58.539-33.92-84.352c-32.427-33.749-68.8-33.963-85.504-35.925-119.381-8.597-298.688-8.875-298.688-8.875s-221.888 2.005-290.133 8.555c-18.987 3.52-61.653 2.496-94.101 36.245-25.579 25.813-33.92 84.352-33.92 84.352s-8.555 68.736-8.555 137.451v64.427c0 68.757 8.555 137.451 8.555 137.451s8.341 58.517 33.92 84.309c32.448 33.792 68.821 33.963 85.483 35.925 119.424 8.661 298.56 8.661 298.56 8.661h0.363s179.136 0 298.517-8.661c16.704-1.963 53.077-2.133 85.504-35.925 25.6-25.792 33.92-84.309 33.92-84.309s8.555-68.693 8.555-137.451v-64.427c0-68.715-8.555-137.451-8.555-137.451zM423.851 576.533l0.021-238.677 230.571 118.933-230.592 119.744z" />
<glyph unicode="&#xe906;" glyph-name="Bas-007" d="M513.771 28.651h-0.171c-0.016 0-0.034 0-0.052 0-74.385 0-144.319 19.062-205.181 52.568l2.204-1.112-225.259-58.795 60.288 219.136c-35.673 60.495-56.747 133.286-56.747 211 0 0.138 0 0.276 0 0.413v-0.021c0.107 233.152 190.72 422.848 424.917 422.848 113.664-0.043 220.373-44.075 300.587-124.011s124.373-186.176 124.309-299.157c-0.064-233.173-190.699-422.869-424.896-422.869zM763.605 700.203c-63.631 63.676-151.56 103.063-248.689 103.063-0.35 0-0.7-0.001-1.050-0.002h0.054c-194.795 0-353.237-157.653-353.323-351.445 0-66.411 18.667-131.093 54.016-187.051l8.384-13.291-35.669-129.707 133.675 34.901 12.885-7.616c51.409-30.793 113.418-49.003 179.68-49.003 0.026 0 0.053 0 0.079 0h0.123c194.667 0 353.088 157.675 353.173 351.488 0.001 0.284 0.001 0.62 0.001 0.956 0 96.87-39.518 184.509-103.312 247.677l-0.028 0.028zM649.984 250.475c-18.283-2.731-41.429-3.861-66.859 4.181-24.859 7.681-44.922 15.236-64.452 23.783l3.929-1.533c-106.517 45.781-176.064 152.491-181.376 159.552s-43.349 57.301-43.349 109.312c0 51.989 27.435 77.568 37.163 88.149 9.728 10.56 21.227 13.205 28.309 13.205s14.144-0.064 20.331-0.363c6.528-0.32 15.296 2.453 23.893-18.133 8.853-21.163 30.080-73.173 32.747-78.464 2.645-5.291 4.416-11.456 0.875-18.517-3.541-7.040-5.291-11.456-10.603-17.621s-11.157-13.781-15.936-18.517c-5.312-5.269-10.837-10.987-4.651-21.547 6.187-10.581 27.499-45.184 59.051-73.216 40.576-35.989 74.773-47.147 85.376-52.437 10.645-5.291 16.832-4.416 23.019 2.645 6.187 7.040 26.539 30.848 33.6 41.429 7.104 10.581 14.165 8.811 23.893 5.291 9.749-3.52 61.931-29.077 72.555-34.368 10.603-5.312 17.685-7.936 20.352-12.352 2.645-4.416 2.645-25.557-6.208-50.24-8.832-24.683-51.243-47.211-71.659-50.24z" />
<glyph unicode="&#xe907;" glyph-name="Bas-008" d="M896 291.883c-6.19-17.56-11.473-30.645-17.186-43.496l1.549 3.901c-14.229-31.578-30.162-58.698-48.601-83.868l0.899 1.287c-25.003-34.411-45.525-58.197-61.355-71.445-24.491-21.696-50.773-32.896-78.912-33.429-20.203 0-44.523 5.568-72.896 16.704-28.437 11.2-54.549 16.725-78.443 16.725-25.067 0-51.947-5.525-80.683-16.725-28.8-11.136-51.989-17.045-69.739-17.621-26.965-1.131-53.845 10.283-80.683 34.347-17.109 14.379-38.549 39.061-64.213 73.984-27.541 37.312-50.155 80.555-67.904 129.941-18.987 53.291-28.523 104.896-28.523 154.752 0 57.28 12.843 106.645 38.571 147.968 19.998 32.856 47.248 59.451 79.649 78.106l1.077 0.572c31.357 18.261 68.932 29.218 109.031 29.673l0.132 0.001c21.419 0 49.515-6.421 84.395-18.901 34.837-12.651 57.173-19.008 66.987-19.008 7.339 0 32.149 7.445 74.24 22.336 39.808 13.803 73.429 19.499 100.949 17.259 74.56-5.781 130.581-34.112 167.851-85.141-66.688-38.933-99.669-93.44-99.008-163.349 0.597-54.507 21.077-99.819 61.397-135.851 17.366-15.974 37.716-29.039 60.068-38.229l1.351-0.491zM708.395 917.611c0.619-5.717 0.896-11.435 0.896-17.067 0-42.709-16.213-82.581-48.448-119.488-38.976-43.904-86.101-69.205-137.195-65.195-0.652 4.803-1.024 10.354-1.024 15.992 0 0.055 0 0.111 0 0.166v-0.009c0 41.024 18.517 84.864 51.435 120.725 16.427 18.24 37.312 33.323 62.613 45.312 25.301 11.883 49.237 18.453 71.723 19.563z" />
<glyph unicode="&#xe908;" glyph-name="Bas-014" d="M511.957 640c-105.557 0-192-86.4-192-192.021 0-105.579 86.443-191.979 192-191.979 105.643 0 192.021 86.4 192.021 191.979 0 105.621-86.379 192.021-192.021 192.021z" />
<glyph unicode="&#xe909;" glyph-name="Bas-009" d="M901.376 375.275c-1.508 1.075-2.75 2.419-3.679 3.972l-0.033 0.060c-2.249 3.824-3.924 8.281-4.764 13.027l-0.036 0.242c-0.316 1.453-0.58 3.231-0.735 5.041l-0.011 0.164c-0.043 0.256-0.043 0.448-0.043 0.597v256.299h-114.837v-214.656l-0.021-0.619c0.085-4.288-2.837-26.859-11.947-41.451-4.501-7.488-9.6-13.077-16.981-17.515-7.445-4.331-18.112-8.384-37.675-8.491-21.525 0.171-32.213 4.907-39.829 9.877-5.583 3.862-10.196 8.707-13.684 14.323l-0.118 0.205c-5.696 8.832-9.515 20.693-11.264 30.037-0.647 3.075-1.191 6.854-1.512 10.696l-0.024 0.355c-0.085 1.216-0.149 2.069-0.149 2.432v0.171l0.576 163.499-92.48-0.576c0 48.448-15.083 97.28-40.683 134.037 0.96 5.013 3.157 11.925 5.547 14.784 1.066 1.632 2.507 2.937 4.205 3.811l0.062 0.029c1.963 0.96 5.653 2.603 14.827 2.667v116.352c-30.123 0.171-58.219-8.171-79.68-22.848-14.739-10.12-26.959-22.768-36.297-37.43l-0.311-0.522-0.235-0.427c-26.502 12.222-57.508 19.349-90.179 19.349-0.006 0-0.013 0-0.019 0h0.001c-123.072-0.043-222.763-101.056-222.784-225.749 0.021-124.693 99.712-225.707 222.784-225.749 5.141 0 10.24 0.235 15.317 0.576v-0.576c66.368-0.128 120.085-54.571 120.192-121.813-0.107-67.221-53.845-121.664-120.192-121.792-66.347 0.128-120.085 62.123-120.192 129.365h-114.837c0.021-131.541 105.195-245.675 235.029-245.717 129.835 0.043 234.987 106.624 235.029 238.144 0 19.499-2.347 38.443-6.699 56.555 9.831-11.884 21.043-22.127 33.517-30.662l0.552-0.357c27.285-18.603 63.083-29.589 103.531-29.419 40.469-0.171 76.288 10.816 103.573 29.419 2.773 1.877 5.461 3.797 8.021 5.781 4.647-4.337 9.702-8.389 15.049-12.047l0.439-0.284c21.227-14.507 48.96-22.869 78.741-22.869h0.917v116.373c-11.243 0.171-14.165 2.304-15.979 3.328zM329.365 497.621c-59.605 0.128-107.84 49.003-107.947 109.397 0.107 60.373 48.341 109.269 107.947 109.376 59.605-0.107 107.84-49.003 107.947-109.376-0.107-60.395-48.341-109.269-107.947-109.397zM487.787 448.341c16.398 16.825 30.235 36.251 40.815 57.58l0.593 1.322v-67.797c0.192-2.859 0.043-17.536 4.416-38.379-13.261 18.014-28.36 33.574-45.309 46.885l-0.515 0.39z" />
<glyph unicode="&#xe90a;" glyph-name="Bas-031" d="M128 192v85.333h768v-85.333h-768zM128 490.667h768v-85.333h-768v85.333zM128 704h768v-85.333h-768v85.333z" />
<glyph unicode="&#xe90b;" glyph-name="Bas-032" d="M128 618.667v85.333h768v-85.333h-768zM682.667 405.333h-554.667v85.333h554.667v-85.333zM469.333 192h-341.333v85.333h341.333v-85.333z" />
<glyph unicode="&#xe90c;" glyph-name="Bas-033" d="M426.667 192h170.667v85.333h-170.667v-85.333zM128 704v-85.333h768v85.333h-768zM256 405.333h512v85.333h-512v-85.333z" />
<glyph unicode="&#xe90d;" glyph-name="Bas-015" d="M255.979 234.667h128l85.333 170.667v256h-255.979v-256h128l-85.355-170.667zM597.312 234.667h128l85.333 170.667v256h-256v-256h128.021l-85.355-170.667z" />
<glyph unicode="&#xe90e;" glyph-name="Bas-043" d="M384 405.333v85.333h469.333v-85.333h-469.333zM170.667 661.333h576v-85.333h-576v85.333zM640 234.667h-362.667v85.333h362.667v-85.333z" />
<glyph unicode="&#xe90f;" glyph-name="Bas-047" d="M518.805-40.981c-176.555 0-320.192 145.813-320.192 325.056v309.653c0 179.243 143.637 325.035 320.192 325.035s320.192-145.792 320.192-325.035v-309.653c0-179.243-143.637-325.056-320.192-325.056zM760.256 587.861c0 135.147-108.331 245.099-241.451 245.099-133.141 0-241.451-109.952-241.451-245.099v-297.92c0-135.147 108.309-245.12 241.451-245.12 133.12 0 241.451 109.973 241.451 245.12v297.92zM515.349 542.805c-29.632 0-53.653 24.384-53.653 54.443 0 1.131 0.256 2.176 0.32 3.307v46.123c-0.064 1.109-0.32 2.155-0.32 3.285 0 30.080 24.021 54.464 53.653 54.464 29.141 0 52.757-23.637 53.504-53.056h0.789v-56h-0.832c-1.003-29.184-24.469-52.565-53.461-52.565z" />
<glyph unicode="&#xe910;" glyph-name="Bas-044" d="M106.667 768v-128h213.333v-512h128v512h213.333v128h-554.667zM917.333 554.667h-384v-128h128v-298.667h128v298.667h128v128z" />
<glyph unicode="&#xe911;" glyph-name="Bas-045" d="M706.56 429.227l-381.44 381.44-60.16-60.16 101.547-101.547-219.733-219.733c-25.173-25.173-25.173-65.707 0-90.453l234.667-234.667c12.373-12.352 29.035-18.773 45.227-18.773 16.213 0 32.853 6.421 45.227 18.773l234.667 234.667c25.173 24.747 25.173 65.28 0 90.453zM222.293 384l204.373 204.373 204.373-204.373h-408.747zM810.667 320s-85.333-92.587-85.333-149.333c0-46.912 38.4-85.333 85.333-85.333s85.333 38.421 85.333 85.333c0 56.747-85.333 149.333-85.333 149.333z" />
<glyph unicode="&#xe912;" glyph-name="Bas-046" d="M501.333 874.752c-229.419 0-416-186.624-416-416.021 0-229.44 186.581-415.979 416-415.979 229.397 0 415.979 186.539 415.979 415.979 0 229.397-186.581 416.021-415.979 416.021zM501.333 122.347v672.768c185.493 0 336.405-150.912 336.405-336.384 0-185.515-150.912-336.384-336.405-336.384z" />
<glyph unicode="&#xe913;" glyph-name="Bas-013" d="M512 874.667c-235.52 0-426.667-191.147-426.667-426.667s191.147-426.667 426.667-426.667 426.667 191.147 426.667 426.667-191.147 426.667-426.667 426.667zM554.667 234.667h-85.333v85.333h85.333v-85.333zM554.667 405.333h-85.333v256h85.333v-256z" />
<glyph unicode="&#xe914;" glyph-name="Bas-034" d="M170.667 704h768v85.333h-768c-46.933 0-85.333-38.4-85.333-85.333v-469.333h-85.333v-128h597.333v128h-426.667v469.333zM981.333 618.667h-256c-23.467 0-42.667-19.2-42.667-42.667v-426.667c0-23.467 19.2-42.667 42.667-42.667h256c23.467 0 42.667 19.2 42.667 42.667v426.667c0 23.467-19.2 42.667-42.667 42.667zM938.667 234.667h-170.667v298.667h170.667v-298.667z" />
<glyph unicode="&#xe915;" glyph-name="Bas-035" d="M853.333 192c46.933 0 85.333 38.4 85.333 85.333v426.667c0 46.933-38.4 85.333-85.333 85.333h-682.667c-46.933 0-85.333-38.4-85.333-85.333v-426.667c0-46.933 38.4-85.333 85.333-85.333h-170.667v-85.333h1024v85.333h-170.667zM170.667 704h682.667v-426.667h-682.667v426.667z" />
<glyph unicode="&#xe916;" glyph-name="Bas-036" d="M682.667 917.333h-341.333c-58.88 0-106.667-47.787-106.667-106.667v-725.333c0-58.88 47.787-106.667 106.667-106.667h341.333c58.88 0 106.667 47.787 106.667 106.667v725.333c0 58.88-47.787 106.667-106.667 106.667zM512 21.333c-35.413 0-64 28.587-64 64s28.587 64 64 64 64-28.587 64-64-28.587-64-64-64zM704 192h-384v597.333h384v-597.333z" />
<glyph unicode="&#xe917;" glyph-name="Bas-037" d="M896 832h-768c-46.933 0-85.333-38.4-85.333-85.333v-512c0-46.933 38.4-85.333 85.333-85.333h213.333v-85.333h341.333v85.333h213.333c46.933 0 84.907 38.4 84.907 85.333l0.427 512c0 46.933-38.4 85.333-85.333 85.333zM896 234.667h-768v512h768v-512z" />
<glyph unicode="&#xe918;" glyph-name="Bas-041" d="M256 533.333c-46.933 0-85.333-38.4-85.333-85.333s38.4-85.333 85.333-85.333 85.333 38.4 85.333 85.333-38.4 85.333-85.333 85.333zM768 533.333c-46.933 0-85.333-38.4-85.333-85.333s38.4-85.333 85.333-85.333 85.333 38.4 85.333 85.333-38.4 85.333-85.333 85.333zM512 533.333c-46.933 0-85.333-38.4-85.333-85.333s38.4-85.333 85.333-85.333 85.333 38.4 85.333 85.333-38.4 85.333-85.333 85.333z" />
<glyph unicode="&#xe919;" glyph-name="Bas-042" d="M512 618.667c46.933 0 85.333 38.4 85.333 85.333s-38.4 85.333-85.333 85.333-85.333-38.4-85.333-85.333 38.4-85.333 85.333-85.333zM512 533.333c-46.933 0-85.333-38.4-85.333-85.333s38.4-85.333 85.333-85.333 85.333 38.4 85.333 85.333-38.4 85.333-85.333 85.333zM512 277.333c-46.933 0-85.333-38.4-85.333-85.333s38.4-85.333 85.333-85.333 85.333 38.4 85.333 85.333-38.4 85.333-85.333 85.333z" />
<glyph unicode="&#xe91a;" glyph-name="Bas-027" d="M752.896 689.067c-61.888 61.867-146.837 100.267-241.195 100.267-188.693 0-341.099-152.747-341.099-341.333s152.405-341.333 341.099-341.333c159.232 0 292.011 108.8 330.005 256h-88.811c-34.987-99.413-129.771-170.667-241.195-170.667-141.312 0-256.149 114.773-256.149 256s114.837 256 256.149 256c70.869 0 134.059-29.44 180.16-75.947l-137.472-137.387h298.859v298.667l-100.352-100.267z" />
<glyph unicode="&#xe91b;" glyph-name="Bas-028" d="M512 789.333v128l-170.667-170.667 170.667-170.667v128c141.227 0 256-114.773 256-256 0-43.093-10.667-84.053-29.867-119.467l62.293-62.293c33.28 52.48 52.907 114.773 52.907 181.76 0 188.587-152.747 341.333-341.333 341.333zM512 192c-141.227 0-256 114.773-256 256 0 43.093 10.667 84.053 29.867 119.467l-62.293 62.293c-33.184-51.426-52.907-114.249-52.907-181.678 0-0.029 0-0.057 0-0.086v0.004c0-188.587 152.747-341.333 341.333-341.333v-128l170.667 170.667-170.667 170.667v-128z" />
<glyph unicode="&#xe91c;" glyph-name="Bas-048" d="M853.333 874.667h-512c-46.933 0-85.333-38.4-85.333-85.333v-512c0-46.933 38.4-85.333 85.333-85.333h512c46.933 0 85.312 38.4 85.312 85.333v512c0 46.933-38.379 85.333-85.312 85.333zM490.667 554.667c0-35.413-28.587-64-64-64h-42.667v-85.333h-64v256h106.667c35.413 0 64-28.587 64-64v-42.667zM703.979 469.333c0-35.413-28.565-64-64-64h-106.667v256h106.667c35.435 0 64-28.587 64-64v-128zM874.667 597.333h-64v-42.667h64v-64h-64v-85.333h-63.979v256h127.979v-64zM384 554.667h42.667v42.667h-42.667v-42.667zM170.667 704h-85.333v-597.333c0-46.933 38.4-85.333 85.333-85.333h597.312v85.333h-597.312v597.333zM597.333 469.333h42.645v128h-42.645v-128z" />
<glyph unicode="&#xe91d;" glyph-name="Bas-022" d="M692.992 323.008l-30.315 30.699c32.207 44.414 51.52 100.005 51.52 160.107 0 0.075 0 0.15 0 0.225v-0.012c0 152.384-123.477 275.904-275.797 275.904s-275.797-123.52-275.797-275.904c0-152.405 123.477-275.925 275.797-275.925 60.181 0 116.053 19.477 161.6 52.565l29.333-31.339 174.272-173.611 63.232 63.232-173.845 174.059zM438.4 323.008c-0.063 0-0.138 0-0.214 0-105.332 0-190.72 85.388-190.72 190.72 0 0.105 0 0.21 0 0.315v-0.016c0 0.082 0 0.18 0 0.277 0 105.332 85.388 190.72 190.72 190.72 0.075 0 0.15 0 0.225 0h-0.011c0.064 0 0.139 0 0.214 0 105.332 0 190.72-85.388 190.72-190.72 0-0.098 0-0.195 0-0.293v0.015c0-0.089 0-0.194 0-0.299 0-105.332-85.388-190.72-190.72-190.72-0.075 0-0.15 0-0.225 0h0.011z" />
<glyph unicode="&#xe91e;" glyph-name="Bas-019" d="M316.16 599.403l195.84-197.504 195.84 197.504 60.16-60.8-256-258.752-256 258.752 60.16 60.8z" />
<glyph unicode="&#xe91f;" glyph-name="Bas-020" d="M316.16 279.296l195.84 197.504 195.84-197.504 60.16 60.8-256 258.731-256-258.731 60.16-60.8z" />
<glyph unicode="&#xe920;" glyph-name="Bas-017" d="M674.709 252.16l-197.483 195.84 197.483 195.84-60.8 60.16-258.731-256 258.731-256 60.8 60.16z" />
<glyph unicode="&#xe921;" glyph-name="Bas-018" d="M355.179 252.16l197.504 195.84-197.504 195.84 60.8 60.16 258.752-256-258.752-256-60.8 60.16z" />
<glyph unicode="&#xe922;" glyph-name="Bas-023" d="M810.667 405.333h-256v-256h-85.333v256h-256v85.333h256v256h85.333v-256h256v-85.333z" />
<glyph unicode="&#xe923;" glyph-name="Bas-025" d="M512 874.667c-235.52 0-426.667-191.147-426.667-426.667s191.147-426.667 426.667-426.667 426.667 191.147 426.667 426.667-191.147 426.667-426.667 426.667zM725.333 405.333h-170.667v-170.667h-85.333v170.667h-170.667v85.333h170.667v170.667h85.333v-170.667h170.667v-85.333z" />
<glyph unicode="&#xe924;" glyph-name="Bas-024" d="M810.667 405.333h-597.333v85.333h597.333v-85.333z" />
<glyph unicode="&#xe925;" glyph-name="Bas-026" d="M512 874.667c-235.52 0-426.667-191.147-426.667-426.667s191.147-426.667 426.667-426.667 426.667 191.147 426.667 426.667-191.147 426.667-426.667 426.667zM725.333 405.333h-426.667v85.333h426.667v-85.333z" />
<glyph unicode="&#xe926;" glyph-name="Bas-012" d="M810.667 686.507l-60.16 60.16-238.507-238.507-238.507 238.507-60.16-60.16 238.507-238.507-238.507-238.507 60.16-60.16 238.507 238.507 238.507-238.507 60.16 60.16-238.507 238.507 238.507 238.507z" />
<glyph unicode="&#xe927;" glyph-name="Bas-021" d="M743.957 264.917l-242.283-243.477-242.901 244.075c-70.336 67.157-109.12 157.995-109.12 255.957 0 194.965 157.909 353.664 352.021 353.664 194.133 0 352.064-158.699 352.064-353.664 0-97.963-38.955-189.077-109.781-256.555zM501.355 639.808c-64.811 0-117.568-52.544-117.568-117.205 0-64.576 52.757-117.184 117.568-117.184s117.547 52.608 117.547 117.184c0 64.661-52.736 117.205-117.547 117.205z" />
<glyph unicode="&#xe928;" glyph-name="Bas-011" d="M379.605 271.701l-178.24 180.437-59.413-60.139 237.653-240.597 509.248 515.563-59.413 60.139-449.835-455.403z" />
<glyph unicode="&#xe929;" glyph-name="Bas-038" d="M512 201.813l263.68-159.147-69.973 299.947 232.96 201.813-306.773 26.027-119.893 282.88-119.893-282.88-306.773-26.027 232.96-201.813-69.973-299.947 263.68 159.147z" />
<glyph unicode="&#xe92a;" glyph-name="Bas-040" d="M768 597.333h-42.667v85.333c0 117.76-95.573 213.333-213.333 213.333s-213.333-95.573-213.333-213.333v-85.333h-42.667c-46.933 0-85.333-38.4-85.333-85.333v-426.667c0-46.933 38.4-85.333 85.333-85.333h512c46.933 0 85.333 38.4 85.333 85.333v426.667c0 46.933-38.4 85.333-85.333 85.333zM512 213.333c-46.933 0-85.333 38.4-85.333 85.333s38.4 85.333 85.333 85.333 85.333-38.4 85.333-85.333-38.4-85.333-85.333-85.333zM644.267 597.333h-264.533v85.333c0 72.96 59.307 132.267 132.267 132.267s132.267-59.307 132.267-132.267v-85.333z" />
<glyph unicode="&#xe92b;" glyph-name="Bas-039" d="M85.333 448c0 129.707 104.96 234.667 234.667 234.667h448c94.293 0 170.667-76.373 170.667-170.667s-76.373-170.667-170.667-170.667h-362.667c-58.88 0-106.667 47.787-106.667 106.667s47.787 106.667 106.667 106.667h320v-85.333h-323.84c-23.467 0-23.467-42.667 0-42.667h366.507c46.933 0 85.333 38.4 85.333 85.333s-38.4 85.333-85.333 85.333h-448c-82.347 0-149.333-66.987-149.333-149.333s66.987-149.333 149.333-149.333h405.333v-85.333h-405.333c-129.707 0-234.667 104.96-234.667 234.667z" />
<glyph unicode="&#xe92c;" glyph-name="Bas-010" d="M853.333 789.333h-682.667c-46.933 0-84.907-38.4-84.907-85.333l-0.427-512c0-46.933 38.4-85.333 85.333-85.333h682.667c46.933 0 85.333 38.4 85.333 85.333v512c0 46.933-38.4 85.333-85.333 85.333zM853.333 618.667l-341.333-213.333-341.333 213.333v85.333l341.333-213.333 341.333 213.333v-85.333z" />
<glyph unicode="&#xe92d;" glyph-name="Bas-049" d="M401.067 251.733l-196.267 196.267 196.267 196.267-59.733 59.733-256-256 256-256 59.733 59.733zM622.933 251.733l196.245 196.267-196.245 196.267 59.712 59.733 256.021-256-256.021-256-59.712 59.733z" />
<glyph unicode="&#xe92e;" glyph-name="Bas-016" d="M512 874.667c-235.52 0-426.667-191.147-426.667-426.667s191.147-426.667 426.667-426.667 426.667 191.147 426.667 426.667-191.147 426.667-426.667 426.667zM426.667 256v384l256-192-256-192z" />
<glyph unicode="&#xe92f;" glyph-name="Bas-030" d="M512 45.077l-61.867 56.768c-219.733 200.789-364.8 333.227-364.8 495.765 0 132.416 103.253 236.48 234.667 236.48 74.24 0 145.493-34.837 192-89.877 46.507 55.040 117.76 89.877 192 89.877 131.413 0 234.667-104.064 234.667-236.48 0-162.539-145.067-294.976-364.8-496.192l-61.867-56.341z" />
<glyph unicode="&#xe930;" glyph-name="Bas-029" d="M704 834.261c-74.24 0-145.493-34.816-192-89.856-46.507 55.040-117.76 89.856-192 89.856-131.413 0-234.667-104.043-234.667-236.48 0-162.539 145.067-294.955 364.8-496.192l61.867-56.32 61.867 56.747c219.733 200.811 364.8 333.227 364.8 495.765 0 132.437-103.253 236.48-234.667 236.48zM516.267 165.653l-4.267-4.288-4.267 4.288c-203.093 185.323-337.067 307.861-337.067 432.128 0 85.995 64 150.485 149.333 150.485 65.707 0 129.707-42.56 152.32-101.461h79.787c22.187 58.901 86.187 101.461 151.893 101.461 85.333 0 149.333-64.491 149.333-150.485 0-124.267-133.973-246.805-337.067-432.128z" />
<glyph unicode="&#xe931;" glyph-name="Bas-050" d="M810.667 960h-597.355c-58.891-0.036-106.621-47.774-106.645-106.664v-810.669c0-58.88 47.787-106.667 106.645-106.667h597.355c58.901 0 106.667 47.787 106.667 106.667v810.667c0 58.88-47.765 106.667-106.667 106.667zM512-21.333c-0.025 0-0.055 0-0.085 0-35.311 0-63.936 28.625-63.936 63.936 0 0.023 0 0.045 0 0.068v-0.003c0 35.413 28.608 64 64.021 64s64-28.587 64-64-28.587-64-64-64zM832.021 149.333h-640v682.667h640v-682.667z" />
<glyph unicode="&#xe932;" glyph-name="Bas-051" d="M810.667 554.667h-170.667v256h-256v-256h-170.667l298.667-298.667 298.667 298.667zM213.333 170.667v-85.333h597.333v85.333h-597.333z" />
</font>
</defs>
</svg>
